<svg width="165" height="133" viewBox="0 0 165 133" fill="none" xmlns="http://www.w3.org/2000/svg">
<g opacity="0.05">
<path fill-rule="evenodd" clip-rule="evenodd" d="M165 83.5L82.5 34L0 83.5L82.5 133L165 83.5ZM146 84L82.5 46L19 84L82.5 122L146 84Z" fill="url(#paint0_linear_2_45)"/>
<path d="M82 54L132 84L82 114L32 84L82 54Z" fill="url(#paint1_linear_2_45)"/>
</g>
<g opacity="0.5">
<path fill-rule="evenodd" clip-rule="evenodd" d="M165 67.5L82.5 18L0 67.5L82.5 117L165 67.5ZM146 68L82.5 30L19 68L82.5 106L146 68Z" fill="url(#paint2_linear_2_45)"/>
<path d="M82 38L132 68L82 98L32 68L82 38Z" fill="url(#paint3_linear_2_45)"/>
</g>
<path fill-rule="evenodd" clip-rule="evenodd" d="M165 49.5L82.5 0L0 49.5L82.5 99L165 49.5ZM146 50L82.5 12L19 50L82.5 88L146 50Z" fill="url(#paint4_linear_2_45)"/>
<path d="M82 20L132 50L82 80L32 50L82 20Z" fill="url(#paint5_linear_2_45)"/>
<defs>
<linearGradient id="paint0_linear_2_45" x1="10.5" y1="42" x2="152.5" y2="159.5" gradientUnits="userSpaceOnUse">
<stop stop-color="#D9D9D9" stop-opacity="0.9"/>
<stop offset="0.275" stop-color="#BDBDBD" stop-opacity="0.5"/>
<stop offset="0.56" stop-color="#A0A0A0" stop-opacity="0.9"/>
<stop offset="1" stop-color="#737373" stop-opacity="0.5"/>
</linearGradient>
<linearGradient id="paint1_linear_2_45" x1="38.3636" y1="58.8485" x2="124.424" y2="130.061" gradientUnits="userSpaceOnUse">
<stop stop-color="#D9D9D9" stop-opacity="0.9"/>
<stop offset="0.275" stop-color="#BDBDBD" stop-opacity="0.5"/>
<stop offset="0.56" stop-color="#A0A0A0" stop-opacity="0.9"/>
<stop offset="1" stop-color="#737373" stop-opacity="0.5"/>
</linearGradient>
<linearGradient id="paint2_linear_2_45" x1="10.5" y1="26" x2="152.5" y2="143.5" gradientUnits="userSpaceOnUse">
<stop stop-color="#D9D9D9" stop-opacity="0.9"/>
<stop offset="0.275" stop-color="#BDBDBD" stop-opacity="0.5"/>
<stop offset="0.56" stop-color="#A0A0A0" stop-opacity="0.9"/>
<stop offset="1" stop-color="#737373" stop-opacity="0.5"/>
</linearGradient>
<linearGradient id="paint3_linear_2_45" x1="38.3636" y1="42.8485" x2="124.424" y2="114.061" gradientUnits="userSpaceOnUse">
<stop stop-color="#D9D9D9" stop-opacity="0.9"/>
<stop offset="0.275" stop-color="#BDBDBD" stop-opacity="0.5"/>
<stop offset="0.56" stop-color="#A0A0A0" stop-opacity="0.9"/>
<stop offset="1" stop-color="#737373" stop-opacity="0.5"/>
</linearGradient>
<linearGradient id="paint4_linear_2_45" x1="10.5" y1="8" x2="152.5" y2="125.5" gradientUnits="userSpaceOnUse">
<stop stop-color="#D9D9D9" stop-opacity="0.9"/>
<stop offset="0.275" stop-color="#BDBDBD" stop-opacity="0.5"/>
<stop offset="0.56" stop-color="#A0A0A0" stop-opacity="0.9"/>
<stop offset="1" stop-color="#737373" stop-opacity="0.5"/>
</linearGradient>
<linearGradient id="paint5_linear_2_45" x1="38.3636" y1="24.8485" x2="124.424" y2="96.0606" gradientUnits="userSpaceOnUse">
<stop stop-color="#D9D9D9" stop-opacity="0.9"/>
<stop offset="0.275" stop-color="#BDBDBD" stop-opacity="0.5"/>
<stop offset="0.56" stop-color="#A0A0A0" stop-opacity="0.9"/>
<stop offset="1" stop-color="#737373" stop-opacity="0.5"/>
</linearGradient>
</defs>
</svg>
